# xmcd
#
# Track frame offsets:
#	150
#	9852
#	24102
#	35852
#	47705
#	58470
#	70655
#	84887
#	97160
#	111025
#	125732
#	138172
#	148797
#	159367
#	176425
#	190850
#	202537
#	217482
#	231090
#	245515
#	258130
#	271010
#
# Disc length: 3786 seconds
# Revision: 4
# Processed by: cddbd v1.5.2PL0 Copyright (c) Steve Scherf et al.
# Submitted via: dBpowerAMP V12.0
#
DISCID=2f0ec816
DTITLE=George Jones - Anniversary (Ten Years of Hits)(insecure rip)
DYEAR=1982
DGENRE=Country
TTITLE0=We Can Make It
TTITLE1=Loving You Could Never Be Better
TTITLE2=A Picture Of Me (Without You)
TTITLE3=What My Woman Can't Do
TTITLE4=Nothing Ever Hurt Me (Half As Bad As Losing You)
TTITLE5=Once You've Had The Best
TTITLE6=Her Name Is...
TTITLE7=Old King Kong
TTITLE8=Bartender's Blues
TTITLE9=I'll Just Take It Out In Love
TTITLE10=Someday My Day Will Come
TTITLE11=The Grand Tour
TTITLE12=The Door
TTITLE13=These Days (I Barely Get By)
TTITLE14=Memories of Us
TTITLE15=The Battle
TTITLE16=He Stopped Loving Her Today
TTITLE17=I'm Not Ready Yet
TTITLE18=If Drinkin' Don't Kill Me (Her Memory Will)
TTITLE19=Good Ones And Bad Ones
TTITLE20=Still Doin' Time
TTITLE21=Same Ole Me
EXTD=
EXTT0=
EXTT1=
EXTT2=
EXTT3=
EXTT4=
EXTT5=
EXTT6=
EXTT7=
EXTT8=
EXTT9=
EXTT10=
EXTT11=
EXTT12=
EXTT13=
EXTT14=
EXTT15=
EXTT16=
EXTT17=
EXTT18=
EXTT19=
EXTT20=
EXTT21=
PLAYORDER=
